HIERARCHY
ROOT hips
{
	OFFSET -0.003675 0.299928 -0.021708
	CHANNELS 6 Xposition Yposition Zposition Xrotation Yrotation Zrotation
	JOINT LowerBack
	{
		OFFSET 0.000919 0.177588 0.009275
		CHANNELS 3 Xrotation Yrotation Zrotation
		JOINT spine
		{
			OFFSET 0.000919 0.177588 0.009275
			CHANNELS 3 Xrotation Yrotation Zrotation
			JOINT chest
			{
				OFFSET 0.000456 0.100015 0.004638
				CHANNELS 3 Xrotation Yrotation Zrotation
				JOINT neck
				{
					OFFSET 0.000456 0.100015 0.004638
					CHANNELS 3 Xrotation Yrotation Zrotation
					JOINT head
					{
						OFFSET 0.000924 0.155147 0.009274
						CHANNELS 6 Xposition Yposition Zposition Xrotation Yrotation Zrotation
						End Site
						{
							OFFSET 0.000000 0.153400 0.000000
						}
					}
				}
				JOINT shoulder.L
				{
					OFFSET 0.019937 0.078966 0.057518
					CHANNELS 6 Xposition Yposition Zposition Yrotation Xrotation Zrotation
					JOINT upper_arm.L
					{
						OFFSET 0.177024 -0.020465 -0.095062
						CHANNELS 6 Xposition Yposition Zposition Xrotation Yrotation Zrotation
						JOINT forearm.L
						{
							OFFSET 0.247100 -0.135500 -0.061800
							CHANNELS 3 Xrotation Yrotation Zrotation
							JOINT hand.L
							{
								OFFSET 0.217000 -0.143000 0.039300
								CHANNELS 3 Xrotation Yrotation Zrotation
								JOINT palm.01.L
								{
									OFFSET 0.021770 -0.038291 0.012954
									CHANNELS 6 Xposition Yposition Zposition Yrotation Xrotation Zrotation
									JOINT f_index.01.L
									{
										OFFSET 0.053215 -0.044137 0.008236
										CHANNELS 3 Xrotation Yrotation Zrotation
										JOINT f_index.02.L
										{
											OFFSET 0.036108 -0.024723 -0.010656
											CHANNELS 3 Xrotation Yrotation Zrotation
											JOINT f_index.03.L
											{
												OFFSET 0.021342 -0.014948 -0.010846
												CHANNELS 3 Xrotation Yrotation Zrotation
												End Site
												{
													OFFSET 0.015600 -0.009860 -0.013421
												}
											}
										}
									}
									JOINT thumb.01.L
									{
										OFFSET -0.009090 -0.002348 -0.024223
										CHANNELS 6 Xposition Yposition Zposition Xrotation Yrotation Zrotation
										JOINT thumb.02.L
										{
											OFFSET 0.019713 -0.035076 -0.011120
											CHANNELS 3 Xrotation Yrotation Zrotation
											JOINT thumb.03.L
											{
												OFFSET 0.024877 -0.021748 -0.005176
												CHANNELS 3 Xrotation Yrotation Zrotation
												End Site
												{
													OFFSET 0.016125 -0.013029 -0.001569
												}
											}
										}
									}
								}
								JOINT palm.02.L
								{
									OFFSET 0.032823 -0.025104 0.012281
									CHANNELS 6 Xposition Yposition Zposition Yrotation Xrotation Zrotation
									JOINT f_middle.01.L
									{
										OFFSET 0.055723 -0.038469 0.008037
										CHANNELS 3 Xrotation Yrotation Zrotation
										JOINT f_middle.02.L
										{
											OFFSET 0.038167 -0.027473 -0.015582
											CHANNELS 3 Xrotation Yrotation Zrotation
											JOINT f_middle.03.L
											{
												OFFSET 0.021707 -0.016587 -0.017037
												CHANNELS 3 Xrotation Yrotation Zrotation
												End Site
												{
													OFFSET 0.014112 -0.010584 -0.014294
												}
											}
										}
									}
								}
								JOINT palm.03.L
								{
									OFFSET 0.039230 -0.011402 0.008390
									CHANNELS 6 Xposition Yposition Zposition Yrotation Xrotation Zrotation
									JOINT f_ring.01.L
									{
										OFFSET 0.061796 -0.031470 0.007910
										CHANNELS 3 Xrotation Yrotation Zrotation
										JOINT f_ring.02.L
										{
											OFFSET 0.033092 -0.023401 -0.019127
											CHANNELS 3 Xrotation Yrotation Zrotation
											JOINT f_ring.03.L
											{
												OFFSET 0.021392 -0.015362 -0.017824
												CHANNELS 3 Xrotation Yrotation Zrotation
												End Site
												{
													OFFSET 0.008670 -0.007297 -0.014686
												}
											}
										}
									}
								}
								JOINT palm.04.L
								{
									OFFSET 0.043417 0.002450 0.002889
									CHANNELS 6 Xposition Yposition Zposition Yrotation Xrotation Zrotation
									JOINT f_pinky.01.L
									{
										OFFSET 0.069986 -0.026156 0.003627
										CHANNELS 3 Xrotation Yrotation Zrotation
										JOINT f_pinky.02.L
										{
											OFFSET 0.018520 -0.012813 -0.016429
											CHANNELS 3 Xrotation Yrotation Zrotation
											JOINT f_pinky.03.L
											{
												OFFSET 0.013822 -0.009796 -0.014947
												CHANNELS 3 Xrotation Yrotation Zrotation
												End Site
												{
													OFFSET 0.007238 -0.006103 -0.011657
												}
											}
										}
									}
								}
							}
						}
					}
				}
				JOINT shoulder.R
				{
					OFFSET -0.016662 0.078957 0.057696
					CHANNELS 6 Xposition Yposition Zposition Yrotation Xrotation Zrotation
					JOINT upper_arm.R
					{
						OFFSET -0.176972 -0.020537 -0.095144
						CHANNELS 6 Xposition Yposition Zposition Xrotation Yrotation Zrotation
						JOINT forearm.R
						{
							OFFSET -0.247100 -0.135500 -0.061800
							CHANNELS 3 Xrotation Yrotation Zrotation
							JOINT hand.R
							{
								OFFSET -0.217000 -0.143000 0.039300
								CHANNELS 3 Xrotation Yrotation Zrotation
								JOINT palm.01.R
								{
									OFFSET -0.021773 -0.038278 0.012988
									CHANNELS 6 Xposition Yposition Zposition Yrotation Xrotation Zrotation
									JOINT f_index.01.R
									{
										OFFSET -0.053212 -0.044139 0.008249
										CHANNELS 3 Xrotation Yrotation Zrotation
										JOINT f_index.02.R
										{
											OFFSET -0.036049 -0.024835 -0.010634
											CHANNELS 3 Xrotation Yrotation Zrotation
											JOINT f_index.03.R
											{
												OFFSET -0.021371 -0.014881 -0.010866
												CHANNELS 3 Xrotation Yrotation Zrotation
												End Site
												{
													OFFSET -0.015584 -0.009883 -0.013422
												}
											}
										}
									}
									JOINT thumb.01.R
									{
										OFFSET 0.009113 -0.002381 -0.024211
										CHANNELS 6 Xposition Yposition Zposition Xrotation Yrotation Zrotation
										JOINT thumb.02.R
										{
											OFFSET -0.019694 -0.035097 -0.011088
											CHANNELS 3 Xrotation Yrotation Zrotation
											JOINT thumb.03.R
											{
												OFFSET -0.024867 -0.021762 -0.005168
												CHANNELS 3 Xrotation Yrotation Zrotation
												End Site
												{
													OFFSET -0.016120 -0.013036 -0.001565
												}
											}
										}
									}
								}
								JOINT palm.02.R
								{
									OFFSET -0.032828 -0.025095 0.012286
									CHANNELS 6 Xposition Yposition Zposition Yrotation Xrotation Zrotation
									JOINT f_middle.01.R
									{
										OFFSET -0.055721 -0.038472 0.008040
										CHANNELS 3 Xrotation Yrotation Zrotation
										JOINT f_middle.02.R
										{
											OFFSET -0.038101 -0.027593 -0.015557
											CHANNELS 3 Xrotation Yrotation Zrotation
											JOINT f_middle.03.R
											{
												OFFSET -0.021730 -0.016530 -0.017054
												CHANNELS 3 Xrotation Yrotation Zrotation
												End Site
												{
													OFFSET -0.014096 -0.010608 -0.014293
												}
											}
										}
									}
								}
								JOINT palm.03.R
								{
									OFFSET -0.039192 -0.011488 0.008390
									CHANNELS 6 Xposition Yposition Zposition Yrotation Xrotation Zrotation
									JOINT f_ring.01.R
									{
										OFFSET -0.061839 -0.031387 0.007876
										CHANNELS 3 Xrotation Yrotation Zrotation
										JOINT f_ring.02.R
										{
											OFFSET -0.033068 -0.023437 -0.019125
											CHANNELS 3 Xrotation Yrotation Zrotation
											JOINT f_ring.03.R
											{
												OFFSET -0.021371 -0.015393 -0.017822
												CHANNELS 3 Xrotation Yrotation Zrotation
												End Site
												{
													OFFSET -0.008654 -0.007321 -0.014684
												}
											}
										}
									}
								}
								JOINT palm.04.R
								{
									OFFSET -0.043421 0.002443 0.002845
									CHANNELS 6 Xposition Yposition Zposition Yrotation Xrotation Zrotation
									JOINT f_pinky.01.R
									{
										OFFSET -0.069983 -0.026169 0.003599
										CHANNELS 3 Xrotation Yrotation Zrotation
										JOINT f_pinky.02.R
										{
											OFFSET -0.018501 -0.012842 -0.016428
											CHANNELS 3 Xrotation Yrotation Zrotation
											JOINT f_pinky.03.R
											{
												OFFSET -0.013806 -0.009821 -0.014946
												CHANNELS 3 Xrotation Yrotation Zrotation
												End Site
												{
													OFFSET -0.007226 -0.006121 -0.011655
												}
											}
										}
									}
								}
							}
						}
					}
				}
			}
		}
	}
	JOINT pelvis.L
	{
		OFFSET 0.000000 0.000000 0.000000
		CHANNELS 6 Xposition Yposition Zposition Xrotation Yrotation Zrotation
		JOINT thigh.L
		{
			OFFSET 0.101675 0.001054 -0.000000
			CHANNELS 3 Xrotation Yrotation Zrotation
			JOINT shin.L
			{
				OFFSET 0.000000 -0.534800 0.041000
				CHANNELS 3 Xrotation Yrotation Zrotation
				JOINT foot.L
				{
					OFFSET 0.000000 -0.452000 -0.044800
					CHANNELS 3 Xrotation Yrotation Zrotation
					JOINT toe.L
					{
						OFFSET -0.000000 -0.068500 0.109600
						CHANNELS 3 Xrotation Yrotation Zrotation
						End Site
						{
							OFFSET -0.000000 0.000000 0.067200
						}
					}
				}
				JOINT heel.L
				{
					OFFSET 0.000000 -0.452000 -0.044800
					CHANNELS 3 Xrotation Yrotation Zrotation
					JOINT heel.02.L
					{
						OFFSET -0.038000 -0.085200 0.016200
						CHANNELS 6 Xposition Yposition Zposition Xrotation Yrotation Zrotation
						End Site
						{
							OFFSET 0.080000 -0.000000 0.000000
						}
					}
				}
			}
		}
	}
	JOINT pelvis.R
	{
		OFFSET 0.000000 0.000000 0.000000
		CHANNELS 6 Xposition Yposition Zposition Xrotation Yrotation Zrotation
		JOINT thigh.R
		{
			OFFSET -0.094325 0.001054 0.000000
			CHANNELS 3 Xrotation Yrotation Zrotation
			JOINT shin.R
			{
				OFFSET 0.000000 -0.534800 0.041000
				CHANNELS 3 Xrotation Yrotation Zrotation
				JOINT foot.R
				{
					OFFSET 0.000000 -0.452000 -0.044800
					CHANNELS 3 Xrotation Yrotation Zrotation
					JOINT toe.R
					{
						OFFSET -0.000000 -0.068500 0.109600
						CHANNELS 3 Xrotation Yrotation Zrotation
						End Site
						{
							OFFSET -0.000000 0.000000 0.067200
						}
					}
				}
				JOINT heel.R
				{
					OFFSET 0.000000 -0.452000 -0.044800
					CHANNELS 3 Xrotation Yrotation Zrotation
					JOINT heel.02.R
					{
						OFFSET 0.038000 -0.085200 0.016200
						CHANNELS 6 Xposition Yposition Zposition Xrotation Yrotation Zrotation
						End Site
						{
							OFFSET -0.080000 0.000000 -0.000000
						}
					}
				}
			}
		}
	}
}
MOTION
Frames: 4
Frame Time: 0.041667
-0.017458 0.283824 -0.019032 85.276565 44.546139 -72.356914 0.000002 0.000001 0.000001 -0.000001 0.000001 -0.000001 0.000002 0.000000 0.000000 0.000000 0.000001 0.000001 0.000924 0.155148 0.009274 20.542226 -0.029372 -8.690623 0.019937 0.078966 0.057518 11.327239 2.587274 26.726588 0.177024 -0.020465 -0.095062 -34.809479 13.263621 -60.424368 -21.541259 -15.435319 -27.090171 -0.000000 0.000004 -0.000001 0.021770 -0.038291 0.012954 0.000002 -0.000000 -0.000002 -0.000002 -0.000004 0.000003 -0.000002 -0.000001 0.000005 0.000002 0.000002 0.000004 -0.009090 -0.002348 -0.024223 -0.000000 -0.000000 -0.000001 -0.000001 -0.000001 -0.000001 -0.000001 -0.000001 0.000001 0.032823 -0.025104 0.012281 0.000000 -0.000001 0.000002 0.000001 0.000003 -0.000005 -0.000002 -0.000002 0.000003 0.000001 -0.000001 -0.000003 0.039230 -0.011402 0.008390 0.000002 -0.000000 0.000004 0.000000 0.000000 0.000001 -0.000001 0.000001 0.000001 0.000001 -0.000002 0.000003 0.043417 0.002450 0.002889 -0.000000 -0.000001 -0.000002 -0.000001 -0.000006 -0.000004 -0.000002 0.000000 0.000001 -0.000004 0.000002 -0.000004 -0.016662 0.078957 0.057696 20.425329 2.150128 -34.839309 -0.176972 -0.020537 -0.095144 -65.252397 -26.407632 59.531744 -5.426422 7.110008 12.783128 0.000000 -0.000003 0.000003 -0.021773 -0.038278 0.012988 0.000003 -0.000002 0.000000 -0.000000 -0.000000 0.000000 -0.000002 -0.000001 -0.000006 -0.000002 0.000000 0.000001 0.009114 -0.002381 -0.024211 0.000002 -0.000006 0.000000 0.000003 0.000000 0.000000 0.000001 0.000001 -0.000003 -0.032828 -0.025095 0.012286 0.000003 -0.000000 -0.000001 0.000001 0.000002 0.000001 0.000001 -0.000004 -0.000001 -0.000001 0.000002 -0.000005 -0.039192 -0.011488 0.008390 -0.000001 0.000003 0.000007 -0.000001 0.000001 -0.000002 -0.000001 0.000000 -0.000000 -0.000000 0.000002 -0.000004 -0.043421 0.002443 0.002844 0.000002 -0.000001 0.000002 -0.000007 0.000006 0.000001 -0.000001 -0.000005 0.000003 0.000000 0.000007 -0.000000 -0.000000 0.000000 0.000000 -1.932939 -0.418528 3.867216 -84.779224 -0.429580 -1.800948 61.552046 -1.302571 13.264504 0.000000 -0.000002 0.000003 -0.000000 0.000000 0.000003 0.000003 -0.000001 0.000004 -0.038000 -0.085200 0.016200 -0.000001 0.000000 -0.000000 -0.000000 0.000000 0.000000 -1.905348 -0.416362 5.101612 -71.078364 0.270995 -0.881612 47.151012 -0.210620 2.126624 -0.000002 -0.000001 0.000001 0.000006 -0.000003 0.000002 0.000003 -0.000001 0.000001 0.038000 -0.085200 0.016200 -0.000003 0.000001 0.000000 
-0.018687 0.281712 -0.020739 79.852049 46.344790 -68.953239 -0.000002 0.000000 -0.000001 0.000000 -0.000000 0.000000 0.000001 -0.000001 0.000001 -0.000001 -0.000000 0.000000 0.000924 0.155148 0.009274 20.022233 -0.031124 -10.638516 0.019937 0.078966 0.057518 14.213852 2.907059 26.055731 0.177025 -0.020465 -0.095062 -35.253174 11.236914 -56.887095 -27.255916 -17.580912 -28.909213 -0.000001 0.000002 -0.000006 0.021770 -0.038291 0.012954 0.000001 0.000002 0.000001 -0.000002 -0.000001 0.000005 0.000000 -0.000001 0.000003 -0.000001 -0.000000 -0.000002 -0.009090 -0.002348 -0.024224 -0.000003 -0.000001 0.000004 -0.000003 -0.000001 0.000001 0.000002 0.000003 -0.000001 0.032823 -0.025104 0.012281 0.000000 0.000003 0.000005 -0.000000 0.000001 -0.000003 -0.000003 -0.000001 0.000001 -0.000000 0.000003 0.000005 0.039230 -0.011402 0.008390 -0.000001 -0.000000 0.000004 0.000002 -0.000000 -0.000004 0.000001 0.000004 -0.000002 0.000001 -0.000003 -0.000000 0.043417 0.002450 0.002889 0.000000 0.000002 -0.000000 -0.000005 -0.000004 0.000001 0.000002 0.000004 -0.000001 -0.000000 0.000000 -0.000003 -0.016662 0.078956 0.057696 23.606932 2.159691 -35.015870 -0.176972 -0.020537 -0.095144 -64.512967 -23.353052 57.434665 -9.468990 10.528785 13.098450 0.000002 0.000001 0.000002 -0.021773 -0.038278 0.012988 0.000003 -0.000003 -0.000003 0.000002 0.000002 -0.000003 -0.000001 0.000003 0.000003 -0.000003 0.000005 0.000003 0.009114 -0.002381 -0.024212 0.000002 -0.000004 0.000000 -0.000003 0.000002 -0.000001 -0.000000 -0.000002 0.000001 -0.032828 -0.025095 0.012286 -0.000001 -0.000001 -0.000006 -0.000000 0.000004 0.000003 -0.000000 0.000005 -0.000001 -0.000001 0.000003 -0.000004 -0.039192 -0.011488 0.008390 0.000002 -0.000000 -0.000000 -0.000001 0.000008 -0.000002 0.000002 -0.000001 0.000003 0.000000 -0.000003 -0.000003 -0.043421 0.002443 0.002844 0.000002 -0.000002 -0.000001 -0.000005 0.000004 -0.000002 -0.000004 -0.000004 -0.000002 -0.000002 -0.000005 -0.000000 -0.000000 0.000000 0.000000 -1.954579 -0.546162 5.311041 -88.263058 -0.579619 -3.773884 62.686964 -1.585222 16.215424 -0.000002 -0.000001 0.000000 0.000001 0.000001 0.000003 0.000000 -0.000000 0.000004 -0.038000 -0.085200 0.016200 0.000003 0.000001 0.000001 -0.000000 0.000000 0.000000 -1.930812 -0.543699 6.545452 -69.680319 0.253662 -1.072568 54.658801 -0.270162 2.727992 0.000003 -0.000003 0.000003 0.000000 -0.000002 0.000000 0.000007 -0.000003 0.000003 0.038000 -0.085200 0.016200 -0.000001 0.000000 0.000001 
-0.017521 0.284567 -0.019393 72.689926 47.230396 -61.136531 0.000001 -0.000001 0.000000 -0.000001 0.000000 -0.000001 -0.000000 -0.000001 0.000001 -0.000001 -0.000001 0.000001 0.000924 0.155148 0.009274 19.088256 -0.029453 -10.458873 0.019937 0.078966 0.057518 19.819080 4.203877 24.388294 0.177024 -0.020465 -0.095062 -29.298571 9.626370 -55.267620 -33.130249 -15.482444 -38.339105 -0.000001 -0.000001 -0.000000 0.021770 -0.038291 0.012954 0.000001 0.000003 0.000003 -0.000002 -0.000003 -0.000002 -0.000003 -0.000002 0.000006 -0.000000 0.000005 -0.000002 -0.009090 -0.002348 -0.024224 -0.000002 -0.000004 -0.000000 0.000001 -0.000002 -0.000004 -0.000000 0.000000 -0.000001 0.032823 -0.025104 0.012281 -0.000005 -0.000001 0.000009 0.000001 -0.000002 -0.000002 -0.000003 -0.000000 -0.000000 0.000002 -0.000001 0.000006 0.039230 -0.011402 0.008390 -0.000001 -0.000001 0.000004 0.000003 0.000006 -0.000000 -0.000000 0.000003 0.000003 0.000001 -0.000007 0.000004 0.043417 0.002450 0.002889 -0.000003 -0.000001 -0.000002 -0.000003 -0.000006 -0.000004 -0.000003 -0.000001 -0.000001 -0.000002 0.000003 -0.000005 -0.016662 0.078957 0.057696 28.329596 3.649008 -37.191804 -0.176972 -0.020537 -0.095144 -67.968046 -21.416642 54.399083 -10.753995 11.133410 15.025655 -0.000001 -0.000003 -0.000001 -0.021773 -0.038278 0.012988 0.000002 0.000001 -0.000005 -0.000003 0.000002 -0.000003 -0.000001 0.000005 -0.000006 0.000000 0.000002 0.000002 0.009114 -0.002381 -0.024211 -0.000001 0.000003 -0.000002 0.000000 -0.000003 0.000000 -0.000001 0.000005 -0.000003 -0.032828 -0.025095 0.012286 0.000004 0.000001 -0.000006 -0.000001 0.000004 0.000003 -0.000000 -0.000001 -0.000001 -0.000000 0.000003 -0.000004 -0.039192 -0.011488 0.008390 0.000004 0.000002 -0.000002 -0.000001 0.000004 -0.000005 0.000002 -0.000002 0.000002 0.000002 0.000001 -0.000001 -0.043421 0.002443 0.002844 0.000005 0.000001 -0.000003 -0.000004 0.000002 -0.000001 -0.000002 -0.000001 -0.000000 0.000004 -0.000006 0.000002 -0.000000 0.000000 0.000000 -1.867071 -0.714985 7.374476 -82.397626 -0.456735 -2.314825 45.932466 -2.232857 23.167428 -0.000002 0.000004 -0.000000 -0.000002 -0.000000 -0.000001 -0.000002 0.000001 0.000002 -0.038000 -0.085200 0.016200 0.000002 0.000001 -0.000005 -0.000000 -0.000000 0.000000 -1.850111 -0.712610 8.608875 -61.833395 0.253459 -0.737865 59.966124 0.101190 -1.019672 -0.000002 0.000001 0.000001 -0.000001 0.000003 0.000000 0.000005 -0.000003 0.000004 0.038000 -0.085200 0.016200 0.000002 0.000000 -0.000000 
-0.015219 0.289826 -0.017131 73.692455 48.287617 -62.016014 -0.000001 0.000000 0.000001 -0.000003 0.000000 -0.000001 0.000000 -0.000001 -0.000000 0.000002 -0.000001 0.000000 0.000924 0.155147 0.009274 15.409921 -0.024590 -9.854360 0.019937 0.078966 0.057518 27.010255 6.381318 22.865407 0.177025 -0.020466 -0.095062 -19.152294 8.319680 -52.716773 -32.995657 -14.754867 -40.107902 0.000001 -0.000000 -0.000002 0.021770 -0.038291 0.012954 0.000003 0.000003 0.000006 -0.000003 -0.000000 0.000001 -0.000000 -0.000002 0.000006 0.000002 0.000000 0.000003 -0.009090 -0.002348 -0.024223 -0.000003 -0.000001 -0.000003 0.000001 0.000001 0.000003 -0.000001 0.000000 -0.000001 0.032823 -0.025104 0.012281 0.000002 0.000001 0.000009 0.000001 -0.000001 -0.000004 0.000000 0.000000 0.000001 -0.000003 0.000003 0.000005 0.039230 -0.011402 0.008390 0.000001 0.000001 0.000004 0.000000 0.000003 0.000001 -0.000000 0.000002 0.000003 0.000001 -0.000000 0.000008 0.043417 0.002450 0.002889 0.000000 0.000001 0.000002 -0.000002 -0.000004 0.000001 0.000002 0.000004 -0.000005 -0.000002 0.000000 -0.000001 -0.016662 0.078957 0.057696 35.776558 4.925768 -36.629423 -0.176972 -0.020537 -0.095144 -65.261570 -15.226437 50.786524 -16.136267 15.709246 14.389033 -0.000002 0.000002 0.000003 -0.021773 -0.038278 0.012988 -0.000003 -0.000000 0.000002 -0.000003 -0.000001 -0.000003 -0.000002 -0.000000 0.000001 -0.000000 0.000005 -0.000000 0.009114 -0.002381 -0.024211 -0.000001 0.000001 0.000001 0.000002 -0.000004 -0.000003 0.000003 -0.000002 -0.000006 -0.032828 -0.025095 0.012286 0.000001 -0.000000 -0.000001 0.000001 -0.000001 0.000002 0.000001 0.000000 -0.000004 -0.000003 0.000006 -0.000005 -0.039192 -0.011488 0.008390 -0.000003 0.000002 -0.000002 0.000000 -0.000000 0.000000 0.000001 -0.000001 0.000003 0.000000 0.000003 -0.000003 -0.043421 0.002443 0.002845 -0.000000 0.000001 -0.000001 -0.000003 0.000000 0.000001 -0.000000 -0.000001 -0.000000 -0.000002 0.000001 0.000001 -0.000000 0.000000 0.000000 -1.739539 -0.675943 7.124808 -76.803271 -0.582457 -4.110936 32.865443 -2.221795 23.045789 -0.000002 -0.000001 0.000003 0.000001 -0.000002 -0.000007 0.000002 -0.000001 -0.000000 -0.038000 -0.085200 0.016200 -0.000001 -0.000003 0.000001 0.000000 0.000000 0.000000 -1.723295 -0.673744 8.359169 -55.420138 0.210089 -0.982579 61.764779 0.103383 -1.041684 0.000007 0.000001 -0.000001 0.000001 0.000000 0.000002 0.000009 -0.000001 0.000003 0.038000 -0.085200 0.016200 -0.000003 0.000000 -0.000002 
